<?xml version="1.0" encoding="utf-8"?>
<!-- Generator: Adobe Illustrator 28.3.0, SVG Export Plug-In . SVG Version: 6.00 Build 0)  -->
<svg version="1.1" id="图层" xmlns="http://www.w3.org/2000/svg" xmlns:xlink="http://www.w3.org/1999/xlink" x="0px" y="0px"
	 viewBox="0 0 982.3 181.4" style="enable-background:new 0 0 982.3 181.4;" xml:space="preserve">
<style type="text/css">
	.st0{fill:#FFC107;}
	.st1{fill:#FFFFFF;}
</style>
<circle class="st0" cx="91" cy="90.7" r="90.7"/>
<g>
	<path class="st1" d="M113.8,106.8l28.7,40.5h-31.1l-25.1-36.1H68.8v36.1H43.5V34.1h42.9c17.6,0,30.2,3,37.7,8.9
		c7.5,5.9,11.3,15.5,11.3,28.7C135.3,89.8,128.2,101.5,113.8,106.8z M109.6,71.7c0-6.1-1.6-10.3-4.9-12.6c-3.2-2.3-8.9-3.4-17-3.4
		h-19v33.5h18.5c8.6,0,14.5-1.4,17.7-4.2C108,82.3,109.6,77.8,109.6,71.7z"/>
</g>
<g>
	<path class="st0" d="M315.2,107.8h-2.8h-26.8v36.7h-29V16.2h55.7c33.6,0,52.6,16.1,52.6,44.6c0,19.8-8.4,34.1-24,41.4l27.3,42.4
		h-32.8L315.2,107.8z M312.5,83.6c16,0,25.1-7.3,25.1-22c0-14.3-9.2-21.5-25.1-21.5h-26.8v43.5H312.5z"/>
	<path class="st0" d="M459.9,132.9c-6.6,8.3-17.2,12.8-31,12.8c-21.1,0-33.9-12.8-33.9-30.8c0-18.5,13.4-29.5,37.6-29.7h27.1v-1.8
		c0-10.5-7-16.5-20.5-16.5c-8.8,0-19.1,2.9-29.3,8.6L401,56.1c14.7-7.3,27.3-11.4,44.6-11.4c26.4,0,41.6,13.2,41.8,35.4l0.2,64.4
		h-27.7V132.9z M459.7,110.8V102h-22.2c-10.8,0-16.1,3.3-16.1,11.2c0,7.5,5.9,12.5,15.4,12.5C448.7,125.6,458.1,119.2,459.7,110.8z"
		/>
	<path class="st0" d="M624.2,82.5v62h-28.2V90.8c0-12.5-7.3-20.2-19.4-20.2C562.4,70.8,554,81.4,554,95.9v48.6h-28.2V45.9H554v17.2
		c7-12.3,18.7-18.2,34.1-18.3C610.1,44.8,624.2,59.4,624.2,82.5z"/>
	<path class="st0" d="M691.5,117.7v26.8h-28.2V8.4h28.2v74.8L727.6,46h32.1l-36.1,38l37.8,60.5H728l-23.8-40.2L691.5,117.7z"/>
	<path class="st0" d="M859.1,55.6l-9.7,19.3c-10.8-6.1-21.8-9.5-30.1-9.5c-6.6,0-11.4,2.2-11.4,7.3c0,14.9,52.1,7.3,51.9,42.2
		c0,20.2-17.8,30.8-40.2,30.8c-16,0-31.5-4.8-42.7-13.8l9.2-19.1c10.3,7.9,23.5,12.3,34.3,12.3c7.2,0,12.5-2.4,12.5-7.7
		c0-15.8-51.2-7.3-51.2-42c0-20.4,17.4-30.8,38.9-30.8C834.1,44.6,848.1,48.6,859.1,55.6z"/>
	<path class="st0" d="M939,155.5c-7,17.4-19.1,25.9-36.1,25.9c-10.5,0-18.7-2.9-26.8-9.5l11.9-20.4c4.4,3.7,8.3,5.3,12.8,5.3
		c5.9,0,10.3-2.9,13-8.8l2.7-5.5l-40.9-96.6h29.2l25.9,67.8L954,45.9h28.2L939,155.5z"/>
</g>
</svg>
